# Blender v2.82 (sub 7) OBJ File: 'matapacoColor.blend'
# www.blender.org
mtllib matapaColor.mtl
o BANDANA
v -0.092211 3.079151 3.314075
v 0.627372 2.711426 3.421261
v 0.558859 3.637954 3.435567
v 0.012993 3.811058 3.372834
v -0.518890 4.292425 2.591887
v -0.362020 4.051741 3.049128
v -0.094211 4.616858 3.141901
v -0.395421 4.690686 2.628156
v 1.127921 4.134331 2.330758
v 1.042761 4.389703 2.454002
v 0.996618 4.045105 3.012040
v 1.149075 3.523990 2.895903
v -0.498471 4.924026 2.004313
v -0.626032 4.687530 1.983200
v -0.642360 3.894099 2.555618
v 1.055998 4.624009 1.966871
v 1.018107 4.826812 2.034445
v 0.957671 4.645075 2.577304
v 0.537840 5.192797 1.556381
v 0.547972 5.272295 1.598633
v 0.305351 5.307792 1.521920
v 0.333424 5.356174 1.550322
v 0.277285 5.259475 1.493583
v -0.137370 5.111818 1.633103
v -0.125139 5.203878 1.698258
v 0.888223 3.117740 3.158582
v 0.796694 3.841530 3.251636
v -0.370916 5.160586 2.025362
v -0.112971 5.295874 1.763419
v 0.167453 4.543029 3.315857
v 0.345774 4.564482 3.365041
v 0.638300 4.565384 3.290807
v -0.565715 3.486625 2.862279
v 0.844098 4.566286 3.128183
v 1.093818 4.421270 1.899240
v 0.527650 5.113299 1.514200
vn -0.1608 -0.0271 0.9866
vn -0.1328 -0.0603 0.9893
vn -0.8318 0.3197 0.4537
vn -0.8299 0.2102 0.5168
vn 0.9532 0.2156 0.2119
vn 0.9495 0.2303 0.2132
vn -0.8186 0.4052 0.4071
vn -0.9114 0.2529 0.3246
vn 0.9836 0.1507 0.0992
vn 0.9558 0.2299 0.1834
vn 0.7799 0.3241 -0.5354
vn 0.7676 0.2218 -0.6013
vn 0.3290 0.4102 -0.8506
vn 0.3281 0.3293 -0.8854
vn -0.4362 0.5577 -0.7062
vn -0.4199 0.6281 -0.6551
vn 0.6232 -0.0217 0.7818
vn 0.6784 0.0388 0.7337
vn -0.7432 0.4452 -0.4995
vn -0.7414 0.4504 -0.4975
vn -0.2714 0.6689 0.6920
vn 0.0371 0.9867 0.1584
vn -0.0690 -0.7757 -0.6273
vn -0.1184 -0.4844 -0.8668
vn 0.0496 0.7867 0.6153
vn 0.0389 0.9880 0.1493
vn 0.1852 0.7868 0.5888
vn 0.2184 0.9178 0.3316
vn 0.1752 0.7881 0.5901
vn 0.1781 0.7777 0.6029
vn -0.0237 -0.5846 -0.8110
vn -0.0010 -0.6794 -0.7337
vn -0.3378 -0.7959 -0.5025
vn -0.0360 -0.6110 -0.7908
vn -0.1603 -0.4017 -0.9016
vn -0.1436 -0.5683 -0.8102
vn -0.6728 0.0374 0.7389
vn -0.6578 -0.0119 0.7531
vn 0.7378 0.0661 0.6718
vn 0.7101 -0.0007 0.7041
vn 0.0551 0.9924 0.1103
vn 0.0548 0.9957 0.0748
vn 0.0287 -0.5976 -0.8013
vn 0.0284 -0.5556 -0.8310
vn -0.2783 0.1328 0.9513
vn -0.0973 0.0533 0.9938
vn -0.8792 0.1697 0.4452
vn -0.8757 0.2329 0.4230
vn 0.9517 0.2080 0.2260
vn 0.9484 0.2286 0.2196
vn -0.8501 0.4315 0.3018
vn -0.9304 0.2654 0.2530
vn 0.9575 0.2694 0.1034
vn 0.9836 0.1504 0.0991
vn 0.7709 0.3263 -0.5471
vn 0.7483 0.2335 -0.6209
vn 0.3120 0.4138 -0.8552
vn 0.3025 0.3453 -0.8884
vn -0.4032 0.6259 -0.6676
vn -0.4262 0.5597 -0.7107
vn 0.2460 0.0014 0.9693
vn 0.5010 0.1797 0.8466
vn -0.7438 0.4457 -0.4981
vn -0.7432 0.4495 -0.4956
vn -0.5280 0.1120 0.8418
vn -0.5724 0.1830 0.7993
vn 0.6200 0.0066 0.7846
vn 0.7108 0.1180 0.6934
usemtl RED
s off
f 1//1 2//1 3//1
f 3//2 4//2 1//2
f 5//3 6//3 7//3
f 7//4 8//4 5//4
f 9//5 10//5 11//5
f 11//6 12//6 9//6
f 5//7 13//7 14//7
f 14//8 15//8 5//8
f 10//9 16//9 17//9
f 17//10 18//10 10//10
f 17//11 16//11 19//11
f 19//12 20//12 17//12
f 20//13 19//13 21//13
f 21//14 22//14 20//14
f 23//15 24//15 25//15
f 25//16 21//16 23//16
f 26//17 27//17 3//17
f 3//18 2//18 26//18
f 25//19 13//19 28//19
f 28//20 29//20 25//20
f 7//21 30//21 31//21
f 31//22 32//22 7//22
f 1//23 33//23 26//23
f 26//24 2//24 1//24
f 18//25 28//25 8//25
f 8//26 34//26 18//26
f 17//27 29//27 28//27
f 28//28 18//28 17//28
f 20//29 22//29 29//29
f 29//30 17//30 20//30
f 15//31 14//31 9//31
f 9//32 12//32 15//32
f 24//33 35//33 9//33
f 9//34 14//34 24//34
f 24//35 23//35 36//35
f 36//36 35//36 24//36
f 33//37 1//37 4//37
f 4//38 6//38 33//38
f 12//39 11//39 27//39
f 27//40 26//40 12//40
f 34//41 8//41 7//41
f 7//42 32//42 34//42
f 33//43 15//43 12//43
f 12//44 26//44 33//44
f 31//45 30//45 4//45
f 4//46 3//46 31//46
f 15//47 33//47 6//47
f 6//48 5//48 15//48
f 10//49 18//49 34//49
f 34//50 11//50 10//50
f 8//51 28//51 13//51
f 13//52 5//52 8//52
f 10//53 9//53 35//53
f 35//54 16//54 10//54
f 16//55 35//55 36//55
f 36//56 19//56 16//56
f 19//57 36//57 23//57
f 23//58 21//58 19//58
f 29//59 22//59 21//59
f 21//60 25//60 29//60
f 27//61 32//61 31//61
f 31//62 3//62 27//62
f 24//63 14//63 13//63
f 13//64 25//64 24//64
f 30//65 7//65 6//65
f 6//66 4//66 30//66
f 11//67 34//67 32//67
f 32//68 27//68 11//68
o MATAPACO002
v 0.259281 6.225688 2.195748
v 0.928484 6.046206 2.361884
v 0.936235 5.601946 2.228051
v 0.476263 5.617601 1.755003
v 1.047926 4.373211 1.940471
v 0.643007 4.126729 1.159206
v -0.185573 4.051290 0.870519
v -0.104750 5.494102 1.997514
v -0.305619 5.632483 2.373712
v -0.365325 6.046206 2.487811
v -0.883151 3.536681 1.515457
v -0.644459 4.359231 1.918907
v 0.480678 1.306880 -0.821828
v 0.495230 0.893479 -1.069337
v -0.863843 0.604865 -1.403806
v -0.291015 1.816722 -0.955658
v -1.488132 0.913773 -0.836489
v -1.105445 1.680661 -0.563628
v 0.534532 -0.000000 -0.831795
v -0.770822 -0.000000 -1.244116
v -0.300217 2.774560 -0.244188
v 0.678025 2.984063 0.282046
v -0.666796 3.297673 0.477729
v 1.196978 1.154327 -0.074041
v 0.743362 0.193590 -0.124004
v 1.170706 0.000000 0.589057
v 0.989253 0.387116 0.580180
v 1.294635 1.244326 0.817586
v 0.861369 1.726015 0.562399
v 0.521870 1.113161 1.115655
v 1.058782 0.235530 1.136927
v 1.158559 0.000000 1.231038
v 0.783437 0.000000 1.377715
v 0.683659 0.235530 1.283604
v 0.539729 0.387116 0.747172
v 0.370680 0.000000 0.440120
v 0.616045 3.014535 3.304883
v 0.483359 2.400264 2.812149
v 0.732038 2.411795 2.689754
v 1.322836 2.799040 2.419428
v 0.728688 3.810672 3.209968
v 0.902664 4.244236 3.091478
v 0.356188 4.647265 3.191400
v 0.278548 4.233736 3.360645
v 1.008055 0.417782 2.662695
v 0.578923 2.209765 2.286389
v 0.938397 0.000000 2.465066
v 0.743318 2.299184 1.924486
v 1.079530 0.000000 2.223943
v 1.207353 0.363151 2.225806
v 1.134508 2.597848 1.720775
v 1.104766 0.180513 2.997954
v 1.429653 0.153197 2.974229
v 1.343367 0.363151 2.541253
v 1.677167 0.163183 2.569866
v 1.468820 0.000000 2.978961
v 1.666831 0.000000 2.653205
v 1.150306 0.000000 2.980382
v 1.383484 0.000000 2.257144
v 1.104954 3.500862 1.627273
v 0.449229 1.818784 2.024569
v 0.283185 1.318090 1.689197
v 0.756876 1.474702 1.424703
v 1.114392 2.201906 1.432302
v 0.212091 0.000000 1.052534
v -0.046932 1.201485 1.722363
v 0.037041 1.600906 2.050447
v -0.262126 0.000000 1.052928
v -0.384279 4.712783 2.521178
v -1.739908 1.301340 0.302166
v -1.340338 0.461009 -0.096090
v -1.473116 1.324210 1.274292
v -1.104362 1.804160 1.128689
v -0.384831 1.029991 1.410902
v -0.536209 1.438754 1.744935
v -1.262694 0.000000 0.618515
v -1.216997 0.296860 0.723585
v -1.487988 0.214206 0.566200
v -1.398309 0.000000 0.523296
v -1.224810 0.352393 0.975164
v -1.201642 0.000000 1.821029
v -1.118733 0.244098 1.681305
v -0.736491 0.000000 1.797310
v -0.705737 0.244098 1.653082
v -0.729011 0.000000 0.900563
v -0.710867 0.354841 0.902099
v -0.199453 0.200355 3.215771
v -0.240064 0.000000 3.289306
v -0.355815 0.000000 2.816283
v -0.201873 2.160997 2.344326
v -0.647916 0.354325 3.083750
v -0.725249 0.278178 2.731459
v -0.846291 0.000000 2.843826
v -0.544993 0.000000 3.518085
v -0.579584 0.190369 3.499186
v -0.889987 0.217685 3.400396
v -0.841187 0.000000 3.401019
v -0.474328 2.154684 2.134654
v -0.625681 0.000000 2.672446
v -1.035192 1.924501 1.728968
v -0.434315 1.766279 2.044996
v -0.910995 2.455989 1.965562
v 0.354020 1.969791 2.432944
v -0.179937 2.481308 2.962730
v 0.026994 2.889039 3.236710
v 0.111666 3.821172 3.363813
v -0.500888 3.651354 2.881926
v 0.398950 5.677514 3.630749
v 0.761768 5.613156 3.560483
v 0.830198 6.110887 3.281968
v 0.371403 6.201980 3.347724
v 0.459736 5.561360 4.255275
v 0.695828 5.485599 4.252944
v 0.815609 4.854320 4.059791
v 0.831841 4.876610 3.448481
v 0.451242 4.792861 4.168008
v 0.465796 5.002557 4.317535
v 0.072910 4.854320 4.132078
v 0.469453 5.278351 4.355110
v 0.898759 6.176275 3.081955
v 0.350559 6.354662 3.133564
v 0.942038 5.837283 3.044473
v 1.211857 5.562906 2.849985
v 1.080089 5.628940 2.254957
v 0.985760 5.314943 2.413011
v 1.107821 5.319259 2.858428
v 1.147049 5.205811 2.820564
v 1.016528 5.170829 2.476426
v 0.807026 4.664337 3.123700
v 0.894778 4.972729 2.582843
v 0.227689 5.485599 4.298509
v -0.091460 6.110887 3.371674
v 0.029392 5.613156 3.631765
v -0.060899 4.876610 3.535371
v -0.197304 6.176275 3.188635
v -0.246999 5.837283 3.160203
v -0.555916 5.556013 3.062045
v -0.529609 5.631065 2.412601
v -0.404268 5.309789 2.553222
v -0.455619 5.325186 3.049758
v -0.488715 5.205038 3.022946
v -0.436379 5.174759 2.602369
v -0.076142 4.637473 3.103442
v -0.292969 4.970281 2.697864
v -1.665192 -0.000000 -0.234963
v -1.341113 -0.000000 -0.954620
v -1.748831 0.143276 -0.245722
v -1.452486 0.223740 -1.088057
v -1.315058 0.363216 -0.664978
v -0.738416 3.076638 2.792354
v -0.826214 2.741833 2.332534
v -1.191247 2.274704 0.224039
vn 0.3014 0.2799 -0.9115
vn 0.5818 0.6031 -0.5457
vn 0.7027 0.2221 -0.6759
vn 0.8073 0.2946 -0.5114
vn 0.2726 0.3832 -0.8825
vn -0.4163 0.5741 -0.7051
vn -0.4241 0.4274 -0.7984
vn -0.4578 0.1744 -0.8718
vn -0.6831 0.4873 -0.5440
vn -0.7622 0.4496 -0.4657
vn -0.7871 0.4065 -0.4639
vn 0.1006 0.5137 -0.8521
vn 0.2969 0.2046 -0.9327
vn -0.4421 0.4883 -0.7524
vn -0.4435 0.4877 -0.7520
vn 0.2791 -0.2352 -0.9310
vn 0.2950 -0.2012 -0.9341
vn 0.3284 0.4920 -0.8063
vn 0.4717 0.5287 -0.7057
vn 0.2143 0.5989 -0.7716
vn 0.2641 0.6208 -0.7382
vn -0.4249 0.6167 -0.6627
vn 0.8052 -0.3555 -0.4746
vn 0.7050 0.3824 -0.5973
vn 0.9609 -0.0309 -0.2751
vn 0.8132 0.4540 -0.3641
vn 0.8347 0.3822 -0.3965
vn 0.2001 0.5931 0.7798
vn 0.9181 0.3959 0.0174
vn 0.9054 0.4245 0.0025
vn 0.3222 0.4658 0.8241
vn -0.9123 0.0798 0.4016
vn -0.9304 -0.3319 0.1558
vn 0.0978 0.9633 0.2501
vn 0.0921 0.9644 0.2478
vn 0.3883 -0.3719 0.8432
vn 0.3155 -0.4233 0.8493
vn 0.3666 -0.6291 0.6855
vn 0.6103 -0.5052 0.6101
vn 0.7769 -0.0350 0.6287
vn 0.7256 -0.1053 0.6801
vn 0.3749 0.2900 0.8805
vn -0.9034 -0.1306 0.4083
vn -0.8554 -0.0980 0.5087
vn -0.8765 -0.1860 -0.4441
vn -0.8492 -0.1783 -0.4970
vn 0.2612 -0.0870 -0.9613
vn -0.3139 -0.2190 -0.9239
vn 0.1098 0.8260 0.5529
vn 0.2793 0.8847 0.3733
vn 0.4694 0.8276 0.3078
vn 0.8361 0.2066 0.5082
vn 0.8280 0.2275 0.5125
vn 0.0045 0.0320 0.9995
vn 0.0659 -0.0802 0.9946
vn 0.1085 -0.0331 -0.9935
vn 0.4125 0.5891 -0.6948
vn 0.8493 0.3803 -0.3662
vn -0.8928 -0.2610 0.3671
vn -0.9564 0.0217 0.2912
vn 0.7680 -0.3292 -0.5494
vn 0.3929 0.0419 0.9186
vn 0.3473 0.0498 0.9364
vn 0.9793 0.1219 -0.1613
vn 0.9661 0.2131 0.1458
vn 0.5341 -0.5856 0.6098
vn 0.7275 -0.3637 0.5817
vn 0.8772 -0.2000 0.4365
vn 0.8127 -0.2884 0.5063
vn 0.2862 -0.5969 0.7495
vn 0.3774 -0.6339 0.6751
vn 0.8222 -0.5279 0.2129
vn 0.0007 -0.4350 0.9004
vn 0.2611 -0.5051 0.8226
vn -0.8821 -0.0001 -0.4710
vn -0.8280 -0.5071 0.2392
vn -0.7496 0.6338 0.1908
vn -0.7460 -0.5647 0.3530
vn -0.4313 -0.2413 0.8693
vn -0.5327 -0.3750 0.7587
vn -0.9820 0.1757 -0.0693
vn -0.9971 0.0560 0.0506
vn -0.8884 0.4145 0.1970
vn 0.0590 0.5023 0.8627
vn 0.0445 0.4849 0.8735
vn 0.9986 -0.0510 -0.0143
vn 0.9927 -0.1202 0.0083
vn -0.3102 0.0117 0.9506
vn 0.1120 -0.6320 0.7668
vn -0.2061 -0.3356 0.9192
vn 0.0160 0.9892 0.1458
vn 0.0103 0.9886 0.1501
vn -0.5270 -0.3343 0.7813
vn -0.5423 -0.3327 0.7715
vn 0.9344 -0.2733 -0.2286
vn 0.9438 -0.1333 -0.3025
vn -0.8961 0.4317 0.1034
vn 0.5915 0.1694 0.7883
vn 0.5843 0.1846 0.7902
vn 0.2194 0.9193 0.3267
vn -0.0368 0.9275 0.3721
vn -0.3674 0.0255 0.9297
vn -0.3079 -0.0663 0.9491
vn -0.9757 -0.2187 0.0089
vn -0.7334 0.6116 -0.2968
vn 0.5992 -0.2113 -0.7722
vn 0.4560 -0.2455 -0.8555
vn -0.6843 -0.6958 0.2183
vn -0.5031 -0.4935 0.7095
vn -0.5887 -0.2389 0.7722
vn -0.4918 -0.2436 0.8359
vn -0.5016 -0.2513 0.8278
vn -0.3172 -0.5714 0.7569
vn -0.0040 -0.8879 0.4600
vn -0.6084 -0.0527 0.7919
vn -0.6814 -0.1373 0.7189
vn 0.2459 0.4474 0.8599
vn 0.2163 0.4724 0.8544
vn 0.3011 0.9323 0.2004
vn 0.2024 0.9662 0.1600
vn 0.9955 0.0902 0.0297
vn 0.9814 0.1492 0.1209
vn 0.3884 -0.9162 0.0988
vn 0.1570 -0.9871 -0.0318
vn -0.1684 -0.5645 0.8081
vn 0.3211 -0.5645 0.7604
vn 0.5448 -0.1491 0.8252
vn 0.4999 -0.1234 0.8573
vn 0.2923 0.9431 -0.1583
vn 0.2920 0.9432 -0.1581
vn 0.9383 0.0370 0.3439
vn 0.9316 0.0714 0.3565
vn 0.9344 0.0810 0.3468
vn 0.9137 0.3732 -0.1609
vn 0.8821 0.4685 -0.0482
vn 0.8898 -0.3882 -0.2401
vn 0.8897 -0.3882 -0.2401
vn 0.9328 0.0416 -0.3580
vn 0.8874 0.3893 -0.2470
vn 0.7781 -0.5916 -0.2111
vn 0.7622 -0.6060 -0.2275
vn 0.1235 0.2882 -0.9496
vn -0.1058 -0.4193 -0.9016
vn 0.2799 -0.4855 -0.8282
vn 0.2485 -0.4940 -0.8332
vn 0.4598 -0.1661 0.8723
vn 0.5729 -0.0175 0.8194
vn 0.2318 0.8983 0.3732
vn 0.3068 0.7888 0.5325
vn 0.9934 -0.1144 -0.0011
vn 0.6761 -0.0121 0.7367
vn 0.6998 -0.0323 0.7136
vn 0.0661 0.3340 0.9403
vn 0.1164 0.3340 0.9354
vn -0.0755 0.4474 0.8912
vn -0.0474 0.4724 0.8801
vn -0.2569 0.9323 0.2548
vn -0.1677 0.9662 0.1960
vn -0.9396 0.1492 0.3080
vn -0.9711 0.0901 0.2211
vn -0.1603 -0.9871 -0.0009
vn -0.3621 -0.9162 0.1718
vn -0.3755 -0.1491 0.9147
vn -0.3253 -0.1234 0.9375
vn -0.3173 0.9431 -0.0990
vn -0.3171 0.9432 -0.0989
vn -0.8544 0.0369 0.5183
vn -0.8454 0.0714 0.5294
vn -0.8500 0.0810 0.5205
vn -0.8699 0.4785 0.1197
vn -0.9301 0.3672 0.0048
vn -0.9157 -0.3934 -0.0826
vn -0.9156 -0.3935 -0.0825
vn -0.9521 0.2862 -0.1073
vn -0.9739 0.1827 -0.1344
vn -0.8037 -0.5923 -0.0574
vn -0.8056 -0.5900 -0.0534
vn -0.1676 0.2396 -0.9563
vn 0.1017 -0.3615 -0.9268
vn -0.1813 -0.4352 -0.8819
vn -0.1505 -0.4451 -0.8828
vn -0.1878 -0.1334 0.9731
vn -0.2681 -0.0414 0.9625
vn -0.1984 0.7888 0.5817
vn -0.1555 0.8983 0.4109
vn -0.9826 -0.1454 0.1152
vn -0.3399 -0.1147 0.9334
vn -0.2917 -0.0866 0.9526
vn -0.8842 -0.0069 0.4670
vn -0.9451 0.1290 0.3004
vn 0.0000 -1.0000 0.0000
vn -0.9666 -0.2551 0.0263
vn -0.9548 -0.2845 0.0867
vn -0.2983 0.9544 0.0125
vn -0.6494 0.7209 0.2421
vn -0.3609 -0.6036 -0.7109
vn -0.3022 -0.2865 -0.9092
vn -0.5675 0.8069 -0.1639
vn -0.5291 0.8420 -0.1057
vn -0.5726 0.8157 -0.0829
vn -0.7167 -0.4027 -0.5694
vn -0.7474 -0.5728 -0.3366
vn -0.8042 -0.4942 -0.3301
vn -0.8565 -0.4190 0.3015
vn -0.8316 -0.4624 0.3076
vn 0.8546 0.3324 -0.3989
vn 0.8305 0.2355 -0.5047
vn 0.1499 -0.0416 0.9878
vn 0.9803 0.0440 0.1926
vn 0.0448 -0.6310 0.7745
vn 0.1090 -0.5919 0.7986
vn -0.7285 0.6186 -0.2944
vn -0.3108 -0.0196 0.9503
vn -0.9765 -0.0051 0.2155
vn -0.9806 -0.0116 0.1957
vn -0.9880 0.0704 0.1374
vn -0.8976 0.4170 0.1430
vn -0.9367 0.2004 0.2870
vn -0.8813 0.3084 0.3581
vn -0.9649 0.1924 0.1787
vn 0.9995 -0.0118 -0.0293
vn -0.1933 0.0981 0.9762
vn -0.2461 0.1089 0.9631
vn -0.6025 0.4690 -0.6458
vn 0.8973 -0.4409 -0.0198
vn 0.8553 -0.5160 -0.0467
vn 0.6611 -0.4635 0.5900
vn 0.7260 -0.3173 0.6101
vn 0.7799 -0.5057 0.3688
vn 0.8452 -0.4612 0.2700
vn 0.5020 -0.7269 0.4686
vn -0.6043 -0.5549 0.5718
vn 0.5520 0.7438 -0.3770
vn 0.7729 0.6173 -0.1470
vn 0.8903 -0.4100 -0.1982
vn 0.9457 -0.3171 -0.0716
vn -0.3978 0.7111 -0.5797
vn -0.5707 0.8190 -0.0594
vn -0.9872 -0.1588 0.0122
vn -0.7833 0.5148 -0.3484
vn -0.9127 -0.4034 -0.0645
vn -0.9547 -0.2974 0.0087
vn 0.3930 0.0923 0.9149
vn 0.2395 -0.0895 0.9668
vn -0.2258 -0.6189 0.7523
vn -0.2472 -0.5835 0.7736
vn -0.8407 0.2548 0.4778
vn -0.6592 -0.1465 -0.7376
vn -0.7282 -0.1174 -0.6753
vn -0.6127 -0.0520 -0.7886
vn -0.0873 -0.1268 0.9881
vn 0.2424 0.0810 0.9668
vn 0.3503 -0.6762 0.6481
vn 0.7441 -0.6661 0.0512
vn 0.4478 -0.7996 0.4001
vn -0.3109 -0.5422 0.7806
vn -0.6028 0.4720 -0.6433
vn -0.8225 0.4923 -0.2849
vn -0.9937 0.0265 0.1092
vn -0.9762 0.1659 0.1398
vn -0.9849 0.0876 0.1494
vn -0.9835 0.0906 0.1567
vn 0.9537 0.1439 -0.2640
vn 0.9532 -0.0001 -0.3025
vn 0.9554 0.0756 -0.2856
vn 0.9473 0.0683 -0.3129
vn 0.9652 0.0045 -0.2615
vn 0.9446 0.1948 0.2643
vn 0.9850 0.1057 0.1362
vn 0.9182 -0.0121 -0.3959
vn 0.9671 -0.0257 -0.2533
vn -0.1917 -0.5189 0.8331
vn -0.2922 -0.6677 0.6847
vn -0.0342 0.3141 0.9488
vn -0.0789 -0.8710 0.4850
vn -0.6405 0.2646 0.7209
vn -0.1913 0.4023 0.8953
vn -0.5491 0.0491 0.8343
vn 0.1124 -0.8357 0.5376
usemtl BLACK
s off
f 37//69 38//69 39//69
f 39//70 40//70 37//70
f 39//71 41//71 40//71
f 40//72 41//72 42//72
f 43//73 40//73 42//73
f 40//74 43//74 44//74
f 44//75 37//75 40//75
f 45//76 46//76 37//76
f 37//77 44//77 45//77
f 43//78 47//78 48//78
f 48//79 44//79 43//79
f 49//80 50//80 51//80
f 51//81 52//81 49//81
f 51//82 53//82 54//82
f 54//83 52//83 51//83
f 51//84 50//84 55//84
f 55//85 56//85 51//85
f 57//86 58//86 49//86
f 49//87 52//87 57//87
f 43//88 42//88 58//88
f 58//89 57//89 43//89
f 59//90 43//90 57//90
f 60//91 61//91 50//91
f 50//92 49//92 60//92
f 61//93 55//93 50//93
f 62//94 55//94 61//94
f 61//95 63//95 62//95
f 64//96 65//96 66//96
f 67//97 68//97 62//97
f 62//98 63//98 67//98
f 67//99 69//99 68//99
f 69//99 67//99 70//99
f 71//100 72//100 69//100
f 69//101 70//101 71//101
f 70//102 67//102 63//102
f 63//103 71//103 70//103
f 63//104 64//104 66//104
f 66//105 71//105 63//105
f 73//106 74//106 75//106
f 75//107 76//107 73//107
f 77//108 73//108 76//108
f 76//109 78//109 77//109
f 79//110 80//110 78//110
f 81//111 75//111 82//111
f 82//112 83//112 81//112
f 82//113 84//113 85//113
f 85//114 83//114 82//114
f 86//115 85//115 84//115
f 84//116 87//116 86//116
f 81//117 88//117 89//117
f 89//118 90//118 81//118
f 89//119 91//119 90//119
f 92//120 93//120 91//120
f 91//121 89//121 92//121
f 94//122 92//122 89//122
f 89//123 88//123 94//123
f 86//124 95//124 85//124
f 90//125 91//125 95//125
f 95//126 86//126 90//126
f 83//127 94//127 88//127
f 88//128 81//128 83//128
f 91//129 93//129 95//129
f 76//130 75//130 81//130
f 81//131 90//131 76//131
f 76//132 96//132 41//132
f 41//133 78//133 76//133
f 97//134 98//134 99//134
f 99//135 100//135 97//135
f 71//136 66//136 98//136
f 98//137 101//137 71//137
f 102//138 98//138 97//138
f 97//139 103//139 102//139
f 101//140 72//140 71//140
f 104//141 101//141 98//141
f 98//142 102//142 104//142
f 45//143 44//143 105//143
f 106//144 107//144 108//144
f 108//145 109//145 106//145
f 109//146 110//146 111//146
f 112//147 113//147 114//147
f 114//148 115//148 112//148
f 116//149 113//149 112//149
f 112//150 117//150 116//150
f 117//151 118//151 116//151
f 119//152 120//152 118//152
f 118//153 117//153 119//153
f 121//154 122//154 120//154
f 120//155 119//155 121//155
f 104//156 122//156 121//156
f 116//157 122//157 110//157
f 110//158 108//158 116//158
f 120//159 122//159 116//159
f 116//160 118//160 120//160
f 110//161 122//161 104//161
f 104//162 102//162 110//162
f 123//163 124//163 125//163
f 125//164 126//164 123//164
f 127//165 128//165 129//165
f 130//166 124//166 123//166
f 123//167 131//167 130//167
f 131//168 123//168 127//168
f 127//169 132//169 131//169
f 133//170 130//170 131//170
f 131//171 132//171 133//171
f 129//172 133//172 132//172
f 132//173 127//173 129//173
f 134//174 126//174 125//174
f 125//175 135//175 134//175
f 136//176 109//176 111//176
f 111//177 137//177 136//177
f 137//178 126//178 134//178
f 137//179 134//179 138//179
f 137//180 138//180 136//180
f 126//181 139//181 74//181
f 74//182 140//182 126//182
f 141//183 142//183 143//183
f 143//184 140//184 141//184
f 144//185 145//185 146//185
f 146//186 147//186 144//186
f 148//187 149//187 145//187
f 145//188 144//188 148//188
f 150//189 151//189 145//189
f 145//190 149//190 150//190
f 152//191 79//191 151//191
f 151//192 150//192 152//192
f 153//193 154//193 152//193
f 152//194 150//194 153//194
f 153//195 150//195 149//195
f 149//196 155//196 153//196
f 156//197 38//197 37//197
f 37//198 157//198 156//198
f 145//199 151//199 158//199
f 146//200 145//200 158//200
f 146//201 158//201 156//201
f 159//202 160//202 38//202
f 38//203 156//203 159//203
f 159//204 161//204 160//204
f 161//205 159//205 162//205
f 163//206 164//206 161//206
f 161//207 162//207 163//207
f 165//208 166//208 164//208
f 164//209 163//209 165//209
f 160//210 39//210 38//210
f 161//211 164//211 166//211
f 161//212 166//212 39//212
f 161//213 39//213 160//213
f 158//214 162//214 159//214
f 159//215 156//215 158//215
f 147//216 146//216 156//216
f 156//217 157//217 147//217
f 158//218 151//218 165//218
f 165//219 163//219 162//219
f 162//220 158//220 165//220
f 148//221 167//221 155//221
f 155//222 149//222 148//222
f 168//223 169//223 144//223
f 144//224 147//224 168//224
f 169//225 167//225 148//225
f 148//226 144//226 169//226
f 154//227 167//227 169//227
f 169//228 170//228 154//228
f 152//229 154//229 170//229
f 170//230 79//230 152//230
f 167//231 154//231 153//231
f 153//232 155//232 167//232
f 37//233 46//233 171//233
f 171//234 157//234 37//234
f 172//235 170//235 169//235
f 172//236 169//236 168//236
f 172//237 168//237 171//237
f 173//238 171//238 46//238
f 46//239 174//239 173//239
f 175//240 173//240 174//240
f 173//241 175//241 176//241
f 177//242 176//242 175//242
f 175//243 178//243 177//243
f 179//244 177//244 178//244
f 178//245 180//245 179//245
f 174//246 46//246 45//246
f 180//247 178//247 175//247
f 45//248 180//248 175//248
f 45//249 175//249 174//249
f 173//250 176//250 172//250
f 172//251 171//251 173//251
f 147//252 157//252 171//252
f 171//253 168//253 147//253
f 179//254 170//254 172//254
f 176//255 177//255 179//255
f 179//256 172//256 176//256
f 105//257 179//257 180//257
f 180//258 45//258 105//258
f 83//259 85//259 95//259
f 94//259 95//259 93//259
f 94//259 83//259 95//259
f 94//259 93//259 92//259
f 124//259 130//259 133//259
f 125//259 133//259 129//259
f 125//259 124//259 133//259
f 125//259 129//259 135//259
f 112//259 115//259 181//259
f 112//259 182//259 56//259
f 72//259 56//259 55//259
f 72//259 55//259 62//259
f 62//259 68//259 69//259
f 62//259 69//259 72//259
f 121//259 112//259 72//259
f 72//259 104//259 121//259
f 72//259 101//259 104//259
f 112//259 56//259 72//259
f 112//259 181//259 182//259
f 117//259 121//259 119//259
f 112//259 121//259 117//259
f 113//260 116//260 108//260
f 108//261 107//261 113//261
f 183//262 114//262 113//262
f 113//263 107//263 183//263
f 56//264 182//264 184//264
f 184//265 51//265 56//265
f 183//266 107//266 185//266
f 184//267 183//267 185//267
f 184//268 185//268 51//268
f 51//269 185//269 53//269
f 184//270 182//270 181//270
f 181//271 183//271 184//271
f 181//272 115//272 114//272
f 114//273 183//273 181//273
f 96//274 58//274 42//274
f 42//275 41//275 96//275
f 78//276 165//276 79//276
f 39//277 166//277 41//277
f 74//278 73//278 141//278
f 141//279 140//279 74//279
f 43//280 59//280 47//280
f 143//281 186//281 140//281
f 187//282 128//282 127//282
f 187//283 127//283 186//283
f 47//284 187//284 186//284
f 105//285 44//285 48//285
f 143//286 105//286 48//286
f 186//287 143//287 48//287
f 47//288 186//288 48//288
f 140//289 123//289 126//289
f 140//290 186//290 127//290
f 127//291 123//291 140//291
f 57//292 188//292 59//292
f 65//293 100//293 99//293
f 99//294 66//294 65//294
f 100//295 87//295 84//295
f 84//296 97//296 100//296
f 82//297 139//297 97//297
f 97//298 84//298 82//298
f 66//299 99//299 98//299
f 134//300 187//300 138//300
f 60//301 49//301 65//301
f 65//302 64//302 60//302
f 63//303 61//303 60//303
f 60//304 64//304 63//304
f 52//305 54//305 188//305
f 54//306 106//306 109//306
f 109//307 188//307 54//307
f 54//308 53//308 106//308
f 107//309 106//309 53//309
f 53//310 185//310 107//310
f 77//311 78//311 80//311
f 80//312 142//312 77//312
f 103//313 137//313 111//313
f 111//314 102//314 103//314
f 105//315 143//315 179//315
f 128//316 187//316 134//316
f 128//317 134//317 135//317
f 128//318 135//318 129//318
f 142//319 141//319 73//319
f 73//320 77//320 142//320
f 75//321 74//321 139//321
f 139//322 82//322 75//322
f 103//323 97//323 139//323
f 139//324 126//324 103//324
f 57//325 52//325 188//325
f 59//326 188//326 47//326
f 188//327 109//327 136//327
f 188//328 136//328 138//328
f 47//329 188//329 138//329
f 47//330 138//330 187//330
f 87//331 100//331 58//331
f 58//332 96//332 87//332
f 65//333 49//333 58//333
f 58//334 100//334 65//334
f 76//335 87//335 96//335
f 166//336 165//336 78//336
f 78//337 41//337 166//337
f 76//338 90//338 86//338
f 86//339 87//339 76//339
f 103//340 126//340 137//340
f 111//341 110//341 102//341
f 109//342 108//342 110//342
f 79//343 170//343 179//343
f 143//344 142//344 80//344
f 80//345 79//345 179//345
f 143//346 80//346 179//346
f 151//347 79//347 165//347
